<svg id="svg" version="1.1" xmlns="http://www.w3.org/2000/svg" xmlns:xlink="http://www.w3.org/1999/xlink" width="400" height="400" viewBox="0, 0, 400,400"><g id="svgg"><path id="path0" d="M307.000 119.623 C 299.597 121.207,297.163 122.404,293.109 126.454 C 290.191 129.369,287.966 132.885,287.045 136.036 C 281.154 156.195,288.215 174.842,303.204 178.705 C 311.941 180.957,320.287 180.337,327.324 176.913 C 332.509 174.389,337.835 167.771,339.267 162.072 C 344.337 141.898,337.512 124.456,323.000 120.500 C 318.184 119.187,310.901 118.788,307.000 119.623 M61.384 120.500 C 61.279 120.775,61.240 134.050,61.297 150.000 L 61.400 179.000 71.200 179.128 C 95.482 179.445,104.783 174.132,109.242 157.400 C 109.962 154.697,109.973 143.676,109.258 141.000 C 106.140 129.333,99.104 122.929,86.823 120.579 C 82.768 119.803,61.675 119.738,61.384 120.500 M134.684 121.900 C 133.103 126.614,131.120 132.270,130.793 133.000 C 130.595 133.440,129.985 135.150,129.437 136.800 C 128.888 138.450,127.702 141.870,126.800 144.400 C 125.898 146.930,124.712 150.350,124.163 152.000 C 123.615 153.650,123.002 155.360,122.800 155.800 C 122.598 156.240,121.984 157.950,121.435 159.600 C 119.598 165.118,117.555 170.992,117.193 171.800 C 116.800 172.676,114.800 178.700,114.800 179.008 C 114.800 179.114,117.748 179.200,121.351 179.200 L 127.903 179.200 128.310 178.100 C 128.534 177.495,129.111 175.650,129.594 174.000 C 130.625 170.471,130.998 169.228,131.757 166.800 L 132.319 165.000 142.965 164.893 L 153.611 164.787 153.969 165.693 C 154.166 166.192,154.715 167.950,155.190 169.600 C 155.666 171.250,156.201 173.050,156.381 173.600 C 156.560 174.150,156.929 175.410,157.201 176.400 C 157.472 177.390,157.757 178.425,157.835 178.700 C 157.940 179.074,159.648 179.200,164.634 179.200 L 171.293 179.200 171.087 178.300 C 170.973 177.805,170.131 175.330,169.214 172.800 C 168.298 170.270,167.211 167.210,166.800 166.000 C 166.389 164.790,165.311 161.730,164.406 159.200 C 163.501 156.670,162.312 153.250,161.763 151.600 C 161.215 149.950,160.606 148.240,160.409 147.800 C 160.213 147.360,159.669 145.830,159.200 144.400 C 158.731 142.970,158.187 141.440,157.991 141.000 C 157.794 140.560,157.185 138.850,156.637 137.200 C 156.088 135.550,154.899 132.130,153.995 129.600 C 153.090 127.070,152.059 124.100,151.705 123.000 C 150.689 119.846,151.144 120.000,142.812 120.000 L 135.322 120.000 134.684 121.900 M178.984 120.500 C 178.879 120.775,178.840 134.050,178.897 150.000 L 179.000 179.000 185.100 179.110 L 191.200 179.221 191.200 168.010 L 191.200 156.800 194.553 156.800 L 197.906 156.800 199.617 159.500 C 200.558 160.985,202.169 163.550,203.198 165.200 C 206.673 170.772,209.320 174.990,210.667 177.100 L 212.008 179.200 218.580 179.200 C 226.312 179.200,226.102 179.349,223.470 175.722 C 219.824 170.697,209.000 154.372,209.000 153.897 C 209.000 153.645,209.701 153.070,210.558 152.620 C 223.262 145.935,221.972 126.360,208.527 121.796 C 203.449 120.072,179.548 119.023,178.984 120.500 M233.384 120.500 C 233.279 120.775,233.240 134.050,233.297 150.000 L 233.400 179.000 239.500 179.110 L 245.600 179.221 245.600 168.668 L 245.600 158.115 248.010 156.357 C 249.336 155.391,250.551 154.557,250.710 154.504 C 250.983 154.413,251.912 155.801,255.727 162.000 C 256.607 163.430,258.170 165.950,259.200 167.600 C 260.230 169.250,261.849 171.860,262.799 173.400 C 263.749 174.940,264.950 176.875,265.468 177.700 L 266.411 179.200 273.206 179.200 C 277.110 179.200,280.000 179.042,280.000 178.829 C 280.000 178.482,278.859 176.574,274.000 168.800 C 272.900 167.040,271.134 164.205,270.075 162.500 C 269.016 160.795,267.515 158.410,266.738 157.200 C 259.472 145.878,259.676 146.304,260.835 144.907 C 261.366 144.266,262.250 143.144,262.800 142.413 C 263.350 141.682,265.306 139.175,267.147 136.842 C 268.987 134.509,270.914 132.060,271.428 131.400 C 271.943 130.740,274.077 128.040,276.171 125.400 C 278.264 122.760,279.982 120.465,279.989 120.300 C 279.995 120.135,276.972 120.000,273.272 120.000 L 266.543 120.000 261.972 125.747 C 259.457 128.908,256.925 132.103,256.343 132.847 C 255.762 133.591,254.142 135.666,252.743 137.459 C 251.345 139.251,249.300 141.989,248.200 143.543 C 247.100 145.097,246.065 146.376,245.900 146.385 C 245.735 146.393,245.600 140.460,245.600 133.200 L 245.600 120.000 239.587 120.000 C 235.146 120.000,233.525 120.131,233.384 120.500 M317.804 130.218 C 326.636 132.786,330.588 146.578,326.344 160.023 C 322.853 171.083,307.779 173.240,301.349 163.600 C 297.479 157.797,296.994 143.905,300.423 137.040 C 303.453 130.972,310.663 128.142,317.804 130.218 M86.989 131.280 C 89.926 132.200,93.583 135.218,94.646 137.600 C 96.507 141.766,96.800 143.337,96.800 149.127 C 96.800 163.099,91.405 168.800,78.180 168.800 L 73.600 168.800 73.600 149.600 L 73.600 130.400 78.889 130.400 C 83.220 130.400,84.686 130.559,86.989 131.280 M143.565 131.300 C 143.756 131.795,144.317 133.550,144.812 135.200 C 145.306 136.850,146.021 139.190,146.400 140.400 C 146.779 141.610,147.673 144.490,148.388 146.800 C 149.103 149.110,149.848 151.413,150.044 151.919 C 151.031 154.465,151.135 154.429,143.100 154.309 L 135.800 154.200 135.927 153.200 C 135.996 152.650,136.379 151.210,136.777 150.000 C 137.409 148.079,139.369 141.767,140.440 138.200 C 140.639 137.540,141.161 135.845,141.600 134.434 C 142.040 133.023,142.400 131.538,142.400 131.134 C 142.400 130.110,143.146 130.216,143.565 131.300 M201.004 130.906 C 205.302 132.229,206.615 134.064,206.575 138.693 C 206.529 144.131,203.795 146.124,196.100 146.333 L 191.200 146.465 191.200 138.433 L 191.200 130.400 195.300 130.406 C 197.555 130.409,200.122 130.634,201.004 130.906 M60.800 194.800 L 60.800 196.800 201.200 196.800 L 341.600 196.800 341.600 194.800 L 341.600 192.800 201.200 192.800 L 60.800 192.800 60.800 194.800 M205.000 212.991 C 204.780 213.062,203.280 213.423,201.667 213.794 C 188.327 216.863,180.326 230.458,181.971 247.264 C 182.401 251.653,182.563 252.542,183.634 256.400 C 187.628 270.790,203.557 277.300,221.200 271.752 C 224.490 270.718,224.400 270.892,224.400 265.575 C 224.400 260.278,224.343 260.170,221.930 260.945 C 220.266 261.480,218.766 261.861,214.723 262.775 C 203.087 265.408,196.279 259.975,194.798 246.874 C 192.914 230.200,202.347 219.805,215.400 224.171 C 217.458 224.860,217.906 225.036,220.545 226.200 C 222.531 227.075,222.615 226.981,224.793 221.482 C 226.865 216.250,226.907 216.300,218.600 214.090 C 214.323 212.952,206.974 212.358,205.000 212.991 M82.986 214.096 C 82.880 214.373,82.840 227.650,82.897 243.600 L 83.000 272.600 99.800 272.600 L 116.600 272.600 116.600 267.600 L 116.600 262.600 105.900 262.493 L 95.200 262.387 95.200 254.793 L 95.200 247.200 105.212 247.200 L 115.224 247.200 115.112 242.100 L 115.000 237.000 105.100 236.893 L 95.200 236.786 95.200 230.400 L 95.200 224.013 105.900 223.907 L 116.600 223.800 116.600 218.800 L 116.600 213.800 99.889 213.696 C 86.734 213.613,83.137 213.699,82.986 214.096 M123.501 213.832 C 123.363 213.970,124.381 215.819,125.762 217.941 C 127.143 220.064,129.592 223.870,131.203 226.400 C 132.814 228.930,135.338 232.890,136.812 235.200 C 141.928 243.217,141.800 241.610,137.816 247.800 C 136.542 249.780,134.053 253.650,132.285 256.400 C 130.517 259.150,128.079 262.930,126.866 264.800 C 123.957 269.286,122.400 271.946,122.400 272.428 C 122.400 272.672,124.829 272.778,128.859 272.710 L 135.317 272.600 137.980 268.200 C 139.445 265.780,141.423 262.540,142.376 261.000 C 143.329 259.460,145.029 256.631,146.154 254.714 C 148.625 250.503,148.982 250.442,151.015 253.884 C 153.545 258.167,154.169 259.200,156.407 262.800 C 157.569 264.670,158.718 266.567,158.960 267.015 C 159.202 267.464,160.120 268.947,161.000 270.312 L 162.600 272.793 169.500 272.797 C 173.295 272.798,176.400 272.667,176.400 272.506 C 176.400 272.344,172.051 265.683,166.736 257.704 C 155.693 241.127,156.477 243.476,160.092 237.800 C 161.212 236.040,163.180 232.935,164.465 230.900 C 170.446 221.423,171.845 219.217,173.473 216.691 C 175.594 213.399,175.865 213.548,168.001 213.689 L 161.835 213.800 160.061 216.800 C 159.085 218.450,157.975 220.340,157.595 221.000 C 157.214 221.660,155.956 223.820,154.800 225.800 C 153.644 227.780,152.339 230.030,151.902 230.800 C 150.513 233.245,149.512 234.472,149.185 234.131 C 148.761 233.688,144.800 227.195,144.800 226.943 C 144.800 226.833,144.260 225.959,143.600 225.000 C 142.940 224.041,142.400 223.177,142.400 223.081 C 142.400 222.984,141.166 220.857,139.659 218.353 L 136.917 213.800 130.335 213.691 C 126.714 213.631,123.639 213.694,123.501 213.832 M237.386 214.096 C 237.280 214.373,237.240 227.650,237.297 243.600 L 237.400 272.600 254.200 272.600 L 271.000 272.600 271.000 267.600 L 271.000 262.600 260.300 262.493 L 249.600 262.387 249.600 254.793 L 249.600 247.200 259.612 247.200 L 269.624 247.200 269.512 242.100 L 269.400 237.000 259.500 236.893 L 249.600 236.786 249.600 230.400 L 249.600 224.013 260.300 223.907 L 271.000 223.800 271.000 218.800 L 271.000 213.800 254.289 213.696 C 241.134 213.613,237.537 213.699,237.386 214.096 M283.784 214.100 C 283.679 214.375,283.640 227.650,283.697 243.600 L 283.800 272.600 301.912 272.704 L 320.024 272.808 319.912 267.704 L 319.800 262.600 307.900 262.494 L 296.000 262.388 296.000 237.994 L 296.000 213.600 289.987 213.600 C 285.546 213.600,283.925 213.731,283.784 214.100 " stroke="none" fill="#5d1d5c" fill-rule="evenodd"></path><path id="path1" d="M85.000 18.400 C 84.864 18.620,83.604 18.800,82.200 18.800 C 80.796 18.800,79.536 18.980,79.400 19.200 C 79.264 19.420,78.533 19.600,77.776 19.600 C 77.019 19.600,76.400 19.780,76.400 20.000 C 76.400 20.220,75.680 20.400,74.800 20.400 C 73.920 20.400,73.200 20.580,73.200 20.800 C 73.200 21.020,72.660 21.200,72.000 21.200 C 71.340 21.200,70.800 21.380,70.800 21.600 C 70.800 21.820,70.260 22.000,69.600 22.000 C 68.940 22.000,68.400 22.180,68.400 22.400 C 68.400 22.620,67.860 22.800,67.200 22.800 C 66.540 22.800,66.000 22.980,66.000 23.200 C 66.000 23.420,65.640 23.600,65.200 23.600 C 64.760 23.600,64.400 23.780,64.400 24.000 C 64.400 24.220,64.045 24.400,63.612 24.400 C 63.179 24.400,62.183 24.760,61.400 25.200 C 60.617 25.640,59.711 26.000,59.388 26.000 C 59.065 26.000,58.800 26.180,58.800 26.400 C 58.800 26.620,58.564 26.800,58.275 26.800 C 57.987 26.800,57.364 27.160,56.892 27.600 C 56.420 28.040,55.756 28.400,55.417 28.400 C 55.078 28.400,54.800 28.580,54.800 28.800 C 54.800 29.020,54.480 29.200,54.088 29.200 C 53.697 29.200,53.117 29.560,52.800 30.000 C 52.483 30.440,51.975 30.800,51.672 30.800 C 51.369 30.800,50.617 31.340,50.000 32.000 C 49.383 32.660,48.667 33.200,48.408 33.200 C 48.149 33.200,47.246 33.920,46.400 34.800 C 45.554 35.680,44.666 36.400,44.426 36.400 C 43.857 36.400,36.400 43.857,36.400 44.426 C 36.400 44.666,35.680 45.554,34.800 46.400 C 33.920 47.246,33.200 48.149,33.200 48.408 C 33.200 48.667,32.660 49.383,32.000 50.000 C 31.340 50.617,30.800 51.369,30.800 51.672 C 30.800 51.975,30.440 52.483,30.000 52.800 C 29.560 53.117,29.200 53.697,29.200 54.088 C 29.200 54.480,29.020 54.800,28.800 54.800 C 28.580 54.800,28.400 55.078,28.400 55.417 C 28.400 55.756,28.040 56.420,27.600 56.892 C 27.160 57.364,26.800 57.987,26.800 58.275 C 26.800 58.564,26.620 58.800,26.400 58.800 C 26.180 58.800,26.000 59.065,26.000 59.388 C 26.000 59.711,25.640 60.617,25.200 61.400 C 24.760 62.183,24.400 63.179,24.400 63.612 C 24.400 64.045,24.220 64.400,24.000 64.400 C 23.780 64.400,23.600 64.760,23.600 65.200 C 23.600 65.640,23.420 66.000,23.200 66.000 C 22.980 66.000,22.800 66.540,22.800 67.200 C 22.800 67.860,22.620 68.400,22.400 68.400 C 22.180 68.400,22.000 68.940,22.000 69.600 C 22.000 70.260,21.820 70.800,21.600 70.800 C 21.380 70.800,21.200 71.340,21.200 72.000 C 21.200 72.660,21.020 73.200,20.800 73.200 C 20.580 73.200,20.400 73.920,20.400 74.800 C 20.400 75.680,20.220 76.400,20.000 76.400 C 19.780 76.400,19.600 77.019,19.600 77.776 C 19.600 78.533,19.420 79.264,19.200 79.400 C 18.980 79.536,18.800 80.796,18.800 82.200 C 18.800 83.604,18.620 84.864,18.400 85.000 C 17.846 85.343,17.846 313.857,18.400 314.200 C 18.620 314.336,18.800 315.596,18.800 317.000 C 18.800 318.404,18.980 319.664,19.200 319.800 C 19.420 319.936,19.600 320.667,19.600 321.424 C 19.600 322.181,19.780 322.800,20.000 322.800 C 20.220 322.800,20.400 323.520,20.400 324.400 C 20.400 325.280,20.580 326.000,20.800 326.000 C 21.020 326.000,21.200 326.540,21.200 327.200 C 21.200 327.860,21.380 328.400,21.600 328.400 C 21.820 328.400,22.000 328.940,22.000 329.600 C 22.000 330.260,22.180 330.800,22.400 330.800 C 22.620 330.800,22.800 331.340,22.800 332.000 C 22.800 332.660,22.980 333.200,23.200 333.200 C 23.420 333.200,23.600 333.560,23.600 334.000 C 23.600 334.440,23.780 334.800,24.000 334.800 C 24.220 334.800,24.400 335.155,24.400 335.588 C 24.400 336.021,24.760 337.017,25.200 337.800 C 25.640 338.583,26.000 339.489,26.000 339.812 C 26.000 340.135,26.180 340.400,26.400 340.400 C 26.620 340.400,26.800 340.636,26.800 340.925 C 26.800 341.213,27.160 341.836,27.600 342.308 C 28.040 342.780,28.400 343.444,28.400 343.783 C 28.400 344.122,28.580 344.400,28.800 344.400 C 29.020 344.400,29.200 344.720,29.200 345.112 C 29.200 345.503,29.560 346.083,30.000 346.400 C 30.440 346.717,30.800 347.225,30.800 347.528 C 30.800 347.831,31.340 348.583,32.000 349.200 C 32.660 349.817,33.200 350.533,33.200 350.792 C 33.200 351.051,33.920 351.954,34.800 352.800 C 35.680 353.646,36.400 354.534,36.400 354.774 C 36.400 355.343,43.857 362.800,44.426 362.800 C 44.666 362.800,45.554 363.520,46.400 364.400 C 47.246 365.280,48.133 366.000,48.372 366.000 C 48.612 366.000,49.372 366.540,50.063 367.200 C 50.754 367.860,51.522 368.400,51.771 368.400 C 52.020 368.400,52.483 368.760,52.800 369.200 C 53.117 369.640,53.697 370.000,54.088 370.000 C 54.480 370.000,54.800 370.180,54.800 370.400 C 54.800 370.620,55.120 370.800,55.512 370.800 C 55.903 370.800,56.483 371.160,56.800 371.600 C 57.117 372.040,57.697 372.400,58.088 372.400 C 58.480 372.400,58.800 372.580,58.800 372.800 C 58.800 373.020,59.160 373.200,59.600 373.200 C 60.040 373.200,60.400 373.380,60.400 373.600 C 60.400 373.820,60.760 374.000,61.200 374.000 C 61.640 374.000,62.000 374.180,62.000 374.400 C 62.000 374.620,62.540 374.800,63.200 374.800 C 63.860 374.800,64.400 374.980,64.400 375.200 C 64.400 375.420,64.760 375.600,65.200 375.600 C 65.640 375.600,66.000 375.780,66.000 376.000 C 66.000 376.220,66.540 376.400,67.200 376.400 C 67.860 376.400,68.400 376.580,68.400 376.800 C 68.400 377.020,68.940 377.200,69.600 377.200 C 70.260 377.200,70.800 377.380,70.800 377.600 C 70.800 377.820,71.340 378.000,72.000 378.000 C 72.660 378.000,73.200 378.180,73.200 378.400 C 73.200 378.620,73.920 378.800,74.800 378.800 C 75.680 378.800,76.400 378.980,76.400 379.200 C 76.400 379.420,77.019 379.600,77.776 379.600 C 78.533 379.600,79.264 379.780,79.400 380.000 C 79.536 380.220,80.796 380.400,82.200 380.400 C 83.604 380.400,84.864 380.580,85.000 380.800 C 85.343 381.354,313.857 381.354,314.200 380.800 C 314.336 380.580,315.596 380.400,317.000 380.400 C 318.404 380.400,319.664 380.220,319.800 380.000 C 319.936 379.780,320.667 379.600,321.424 379.600 C 322.181 379.600,322.800 379.420,322.800 379.200 C 322.800 378.980,323.520 378.800,324.400 378.800 C 325.280 378.800,326.000 378.620,326.000 378.400 C 326.000 378.180,326.540 378.000,327.200 378.000 C 327.860 378.000,328.400 377.820,328.400 377.600 C 328.400 377.380,328.940 377.200,329.600 377.200 C 330.260 377.200,330.800 377.020,330.800 376.800 C 330.800 376.580,331.340 376.400,332.000 376.400 C 332.660 376.400,333.200 376.220,333.200 376.000 C 333.200 375.780,333.560 375.600,334.000 375.600 C 334.440 375.600,334.800 375.420,334.800 375.200 C 334.800 374.980,335.155 374.800,335.588 374.800 C 336.021 374.800,337.017 374.440,337.800 374.000 C 338.583 373.560,339.489 373.200,339.812 373.200 C 340.135 373.200,340.400 373.020,340.400 372.800 C 340.400 372.580,340.636 372.400,340.925 372.400 C 341.213 372.400,341.836 372.040,342.308 371.600 C 342.780 371.160,343.444 370.800,343.783 370.800 C 344.122 370.800,344.400 370.620,344.400 370.400 C 344.400 370.180,344.720 370.000,345.112 370.000 C 345.503 370.000,346.083 369.640,346.400 369.200 C 346.717 368.760,347.225 368.400,347.528 368.400 C 347.831 368.400,348.583 367.860,349.200 367.200 C 349.817 366.540,350.533 366.000,350.792 366.000 C 351.051 366.000,351.954 365.280,352.800 364.400 C 353.646 363.520,354.534 362.800,354.774 362.800 C 355.343 362.800,362.800 355.343,362.800 354.774 C 362.800 354.534,363.520 353.646,364.400 352.800 C 365.280 351.954,366.000 351.051,366.000 350.792 C 366.000 350.533,366.540 349.817,367.200 349.200 C 367.860 348.583,368.400 347.831,368.400 347.528 C 368.400 347.225,368.760 346.717,369.200 346.400 C 369.640 346.083,370.000 345.503,370.000 345.112 C 370.000 344.720,370.180 344.400,370.400 344.400 C 370.620 344.400,370.800 344.122,370.800 343.783 C 370.800 343.444,371.160 342.780,371.600 342.308 C 372.040 341.836,372.400 341.213,372.400 340.925 C 372.400 340.636,372.580 340.400,372.800 340.400 C 373.020 340.400,373.200 340.135,373.200 339.812 C 373.200 339.489,373.560 338.583,374.000 337.800 C 374.440 337.017,374.800 336.021,374.800 335.588 C 374.800 335.155,374.980 334.800,375.200 334.800 C 375.420 334.800,375.600 334.440,375.600 334.000 C 375.600 333.560,375.780 333.200,376.000 333.200 C 376.220 333.200,376.400 332.660,376.400 332.000 C 376.400 331.340,376.580 330.800,376.800 330.800 C 377.020 330.800,377.200 330.260,377.200 329.600 C 377.200 328.940,377.380 328.400,377.600 328.400 C 377.820 328.400,378.000 327.860,378.000 327.200 C 378.000 326.540,378.180 326.000,378.400 326.000 C 378.620 326.000,378.800 325.280,378.800 324.400 C 378.800 323.520,378.980 322.800,379.200 322.800 C 379.420 322.800,379.600 322.181,379.600 321.424 C 379.600 320.667,379.780 319.936,380.000 319.800 C 380.220 319.664,380.400 318.404,380.400 317.000 C 380.400 315.596,380.580 314.336,380.800 314.200 C 381.354 313.857,381.354 85.343,380.800 85.000 C 380.580 84.864,380.400 83.604,380.400 82.200 C 380.400 80.796,380.220 79.536,380.000 79.400 C 379.780 79.264,379.600 78.533,379.600 77.776 C 379.600 77.019,379.420 76.400,379.200 76.400 C 378.980 76.400,378.800 75.680,378.800 74.800 C 378.800 73.920,378.620 73.200,378.400 73.200 C 378.180 73.200,378.000 72.660,378.000 72.000 C 378.000 71.340,377.820 70.800,377.600 70.800 C 377.380 70.800,377.200 70.260,377.200 69.600 C 377.200 68.940,377.020 68.400,376.800 68.400 C 376.580 68.400,376.400 67.860,376.400 67.200 C 376.400 66.540,376.220 66.000,376.000 66.000 C 375.780 66.000,375.600 65.640,375.600 65.200 C 375.600 64.760,375.420 64.400,375.200 64.400 C 374.980 64.400,374.800 63.860,374.800 63.200 C 374.800 62.540,374.620 62.000,374.400 62.000 C 374.180 62.000,374.000 61.640,374.000 61.200 C 374.000 60.760,373.820 60.400,373.600 60.400 C 373.380 60.400,373.200 60.040,373.200 59.600 C 373.200 59.160,373.020 58.800,372.800 58.800 C 372.580 58.800,372.400 58.480,372.400 58.088 C 372.400 57.697,372.040 57.117,371.600 56.800 C 371.160 56.483,370.800 55.903,370.800 55.512 C 370.800 55.120,370.620 54.800,370.400 54.800 C 370.180 54.800,370.000 54.480,370.000 54.088 C 370.000 53.697,369.640 53.117,369.200 52.800 C 368.760 52.483,368.400 52.020,368.400 51.771 C 368.400 51.522,367.860 50.754,367.200 50.063 C 366.540 49.372,366.000 48.612,366.000 48.372 C 366.000 48.133,365.280 47.246,364.400 46.400 C 363.520 45.554,362.800 44.666,362.800 44.426 C 362.800 43.857,355.343 36.400,354.774 36.400 C 354.534 36.400,353.646 35.680,352.800 34.800 C 351.954 33.920,351.051 33.200,350.792 33.200 C 350.533 33.200,349.817 32.660,349.200 32.000 C 348.583 31.340,347.831 30.800,347.528 30.800 C 347.225 30.800,346.717 30.440,346.400 30.000 C 346.083 29.560,345.503 29.200,345.112 29.200 C 344.720 29.200,344.400 29.020,344.400 28.800 C 344.400 28.580,344.122 28.400,343.783 28.400 C 343.444 28.400,342.780 28.040,342.308 27.600 C 341.836 27.160,341.213 26.800,340.925 26.800 C 340.636 26.800,340.400 26.620,340.400 26.400 C 340.400 26.180,340.135 26.000,339.812 26.000 C 339.489 26.000,338.583 25.640,337.800 25.200 C 337.017 24.760,336.021 24.400,335.588 24.400 C 335.155 24.400,334.800 24.220,334.800 24.000 C 334.800 23.780,334.440 23.600,334.000 23.600 C 333.560 23.600,333.200 23.420,333.200 23.200 C 333.200 22.980,332.660 22.800,332.000 22.800 C 331.340 22.800,330.800 22.620,330.800 22.400 C 330.800 22.180,330.260 22.000,329.600 22.000 C 328.940 22.000,328.400 21.820,328.400 21.600 C 328.400 21.380,327.860 21.200,327.200 21.200 C 326.540 21.200,326.000 21.020,326.000 20.800 C 326.000 20.580,325.280 20.400,324.400 20.400 C 323.520 20.400,322.800 20.220,322.800 20.000 C 322.800 19.780,322.181 19.600,321.424 19.600 C 320.667 19.600,319.936 19.420,319.800 19.200 C 319.664 18.980,318.404 18.800,317.000 18.800 C 315.596 18.800,314.336 18.620,314.200 18.400 C 313.857 17.846,85.343 17.846,85.000 18.400 M319.269 119.632 C 333.896 122.597,340.800 132.271,340.800 149.800 C 340.800 154.977,340.553 156.953,339.267 162.072 C 335.780 175.945,320.263 183.103,303.204 178.705 C 288.215 174.842,281.154 156.195,287.045 136.036 C 287.966 132.885,290.191 129.369,293.109 126.454 C 297.163 122.404,299.597 121.207,307.000 119.623 C 309.329 119.124,316.794 119.130,319.269 119.632 M86.823 120.579 C 99.104 122.929,106.140 129.333,109.258 141.000 C 109.973 143.676,109.962 154.697,109.242 157.400 C 104.783 174.132,95.482 179.445,71.200 179.128 L 61.400 179.000 61.297 150.000 C 61.240 134.050,61.279 120.775,61.384 120.500 C 61.675 119.738,82.768 119.803,86.823 120.579 M150.681 120.500 C 150.890 120.775,151.351 121.900,151.705 123.000 C 152.059 124.100,153.090 127.070,153.995 129.600 C 154.899 132.130,156.088 135.550,156.637 137.200 C 157.185 138.850,157.794 140.560,157.991 141.000 C 158.187 141.440,158.731 142.970,159.200 144.400 C 159.669 145.830,160.213 147.360,160.409 147.800 C 160.606 148.240,161.215 149.950,161.763 151.600 C 162.312 153.250,163.501 156.670,164.406 159.200 C 165.311 161.730,166.389 164.790,166.800 166.000 C 167.211 167.210,168.298 170.270,169.214 172.800 C 170.131 175.330,170.973 177.805,171.087 178.300 L 171.293 179.200 164.634 179.200 C 159.648 179.200,157.940 179.074,157.835 178.700 C 157.757 178.425,157.472 177.390,157.201 176.400 C 156.929 175.410,156.560 174.150,156.381 173.600 C 156.201 173.050,155.666 171.250,155.190 169.600 C 154.715 167.950,154.166 166.192,153.969 165.693 L 153.611 164.787 142.965 164.893 L 132.319 165.000 131.757 166.800 C 130.998 169.228,130.625 170.471,129.594 174.000 C 129.111 175.650,128.534 177.495,128.310 178.100 L 127.903 179.200 121.351 179.200 C 117.748 179.200,114.800 179.114,114.800 179.008 C 114.800 178.700,116.800 172.676,117.193 171.800 C 117.555 170.992,119.598 165.118,121.435 159.600 C 121.984 157.950,122.598 156.240,122.800 155.800 C 123.002 155.360,123.615 153.650,124.163 152.000 C 124.712 150.350,125.898 146.930,126.800 144.400 C 127.702 141.870,128.888 138.450,129.437 136.800 C 129.985 135.150,130.595 133.440,130.793 133.000 C 131.120 132.270,133.103 126.614,134.684 121.900 L 135.322 120.000 142.812 120.000 C 148.335 120.000,150.402 120.131,150.681 120.500 M203.417 120.584 C 207.203 121.254,209.849 122.104,211.909 123.312 C 222.400 129.464,221.600 146.810,210.558 152.620 C 209.701 153.070,209.000 153.645,209.000 153.897 C 209.000 154.372,219.824 170.697,223.470 175.722 C 226.102 179.349,226.312 179.200,218.580 179.200 L 212.008 179.200 210.667 177.100 C 209.320 174.990,206.673 170.772,203.198 165.200 C 202.169 163.550,200.558 160.985,199.617 159.500 L 197.906 156.800 194.553 156.800 L 191.200 156.800 191.200 168.010 L 191.200 179.221 185.100 179.110 L 179.000 179.000 178.897 150.000 C 178.840 134.050,178.879 120.775,178.984 120.500 C 179.270 119.751,199.097 119.820,203.417 120.584 M245.600 133.200 C 245.600 140.460,245.735 146.393,245.900 146.385 C 246.065 146.376,247.100 145.097,248.200 143.543 C 249.300 141.989,251.345 139.251,252.743 137.459 C 254.142 135.666,255.762 133.591,256.343 132.847 C 256.925 132.103,259.457 128.908,261.972 125.747 L 266.543 120.000 273.272 120.000 C 276.972 120.000,279.995 120.135,279.989 120.300 C 279.982 120.465,278.264 122.760,276.171 125.400 C 274.077 128.040,271.943 130.740,271.428 131.400 C 270.914 132.060,268.987 134.509,267.147 136.842 C 265.306 139.175,263.350 141.682,262.800 142.413 C 262.250 143.144,261.366 144.266,260.835 144.907 C 259.676 146.304,259.472 145.878,266.738 157.200 C 267.515 158.410,269.016 160.795,270.075 162.500 C 271.134 164.205,272.900 167.040,274.000 168.800 C 278.859 176.574,280.000 178.482,280.000 178.829 C 280.000 179.042,277.110 179.200,273.206 179.200 L 266.411 179.200 265.468 177.700 C 264.950 176.875,263.749 174.940,262.799 173.400 C 261.849 171.860,260.230 169.250,259.200 167.600 C 258.170 165.950,256.607 163.430,255.727 162.000 C 251.912 155.801,250.983 154.413,250.710 154.504 C 250.551 154.557,249.336 155.391,248.010 156.357 L 245.600 158.115 245.600 168.668 L 245.600 179.221 239.500 179.110 L 233.400 179.000 233.297 150.000 C 233.240 134.050,233.279 120.775,233.384 120.500 C 233.525 120.131,235.146 120.000,239.587 120.000 L 245.600 120.000 245.600 133.200 M308.566 130.195 C 299.533 133.047,295.319 146.638,299.448 159.600 C 303.674 172.866,322.198 173.158,326.344 160.023 C 332.184 141.521,322.762 125.712,308.566 130.195 M73.600 149.600 L 73.600 168.800 78.180 168.800 C 91.405 168.800,96.800 163.099,96.800 149.127 C 96.800 143.337,96.507 141.766,94.646 137.600 C 92.508 132.810,87.233 130.400,78.889 130.400 L 73.600 130.400 73.600 149.600 M142.400 131.134 C 142.400 131.538,142.040 133.023,141.600 134.434 C 141.161 135.845,140.639 137.540,140.440 138.200 C 139.369 141.767,137.409 148.079,136.777 150.000 C 136.379 151.210,135.996 152.650,135.927 153.200 L 135.800 154.200 143.100 154.309 C 151.135 154.429,151.031 154.465,150.044 151.919 C 149.848 151.413,149.103 149.110,148.388 146.800 C 147.673 144.490,146.779 141.610,146.400 140.400 C 146.021 139.190,145.306 136.850,144.812 135.200 C 143.396 130.475,142.400 128.796,142.400 131.134 M191.200 138.433 L 191.200 146.465 196.100 146.333 C 203.795 146.124,206.529 144.131,206.575 138.693 C 206.628 132.549,203.729 130.419,195.300 130.406 L 191.200 130.400 191.200 138.433 M341.600 194.800 L 341.600 196.800 201.200 196.800 L 60.800 196.800 60.800 194.800 L 60.800 192.800 201.200 192.800 L 341.600 192.800 341.600 194.800 M214.869 213.232 C 219.272 214.125,224.632 215.795,225.776 216.632 C 226.466 217.136,226.416 217.383,224.793 221.482 C 222.615 226.981,222.531 227.075,220.545 226.200 C 217.906 225.036,217.458 224.860,215.400 224.171 C 202.347 219.805,192.914 230.200,194.798 246.874 C 196.279 259.975,203.087 265.408,214.723 262.775 C 218.766 261.861,220.266 261.480,221.930 260.945 C 224.343 260.170,224.400 260.278,224.400 265.575 C 224.400 270.892,224.490 270.718,221.200 271.752 C 203.557 277.300,187.628 270.790,183.634 256.400 C 182.563 252.542,182.401 251.653,181.971 247.264 C 180.326 230.458,188.327 216.863,201.667 213.794 C 203.280 213.423,204.780 213.062,205.000 212.991 C 205.993 212.673,212.949 212.843,214.869 213.232 M116.600 218.800 L 116.600 223.800 105.900 223.907 L 95.200 224.013 95.200 230.400 L 95.200 236.786 105.100 236.893 L 115.000 237.000 115.112 242.100 L 115.224 247.200 105.212 247.200 L 95.200 247.200 95.200 254.793 L 95.200 262.387 105.900 262.493 L 116.600 262.600 116.600 267.600 L 116.600 272.600 99.800 272.600 L 83.000 272.600 82.897 243.600 C 82.840 227.650,82.880 214.373,82.986 214.096 C 83.137 213.699,86.734 213.613,99.889 213.696 L 116.600 213.800 116.600 218.800 M139.659 218.353 C 141.166 220.857,142.400 222.984,142.400 223.081 C 142.400 223.177,142.940 224.041,143.600 225.000 C 144.260 225.959,144.800 226.833,144.800 226.943 C 144.800 227.195,148.761 233.688,149.185 234.131 C 149.512 234.472,150.513 233.245,151.902 230.800 C 152.339 230.030,153.644 227.780,154.800 225.800 C 155.956 223.820,157.214 221.660,157.595 221.000 C 157.975 220.340,159.085 218.450,160.061 216.800 L 161.835 213.800 168.001 213.689 C 175.865 213.548,175.594 213.399,173.473 216.691 C 171.845 219.217,170.446 221.423,164.465 230.900 C 163.180 232.935,161.212 236.040,160.092 237.800 C 156.477 243.476,155.693 241.127,166.736 257.704 C 172.051 265.683,176.400 272.344,176.400 272.506 C 176.400 272.667,173.295 272.798,169.500 272.797 L 162.600 272.793 161.000 270.312 C 160.120 268.947,159.202 267.464,158.960 267.015 C 158.718 266.567,157.569 264.670,156.407 262.800 C 154.169 259.200,153.545 258.167,151.015 253.884 C 148.982 250.442,148.625 250.503,146.154 254.714 C 145.029 256.631,143.329 259.460,142.376 261.000 C 141.423 262.540,139.445 265.780,137.980 268.200 L 135.317 272.600 128.859 272.710 C 124.829 272.778,122.400 272.672,122.400 272.428 C 122.400 271.946,123.957 269.286,126.866 264.800 C 128.079 262.930,130.517 259.150,132.285 256.400 C 134.053 253.650,136.542 249.780,137.816 247.800 C 141.800 241.610,141.928 243.217,136.812 235.200 C 135.338 232.890,132.814 228.930,131.203 226.400 C 129.592 223.870,127.143 220.064,125.762 217.941 C 124.381 215.819,123.363 213.970,123.501 213.832 C 123.639 213.694,126.714 213.631,130.335 213.691 L 136.917 213.800 139.659 218.353 M271.000 218.800 L 271.000 223.800 260.300 223.907 L 249.600 224.013 249.600 230.400 L 249.600 236.786 259.500 236.893 L 269.400 237.000 269.512 242.100 L 269.624 247.200 259.612 247.200 L 249.600 247.200 249.600 254.793 L 249.600 262.387 260.300 262.493 L 271.000 262.600 271.000 267.600 L 271.000 272.600 254.200 272.600 L 237.400 272.600 237.297 243.600 C 237.240 227.650,237.280 214.373,237.386 214.096 C 237.537 213.699,241.134 213.613,254.289 213.696 L 271.000 213.800 271.000 218.800 M296.000 237.994 L 296.000 262.388 307.900 262.494 L 319.800 262.600 319.912 267.704 L 320.024 272.808 301.912 272.704 L 283.800 272.600 283.697 243.600 C 283.640 227.650,283.679 214.375,283.784 214.100 C 283.925 213.731,285.546 213.600,289.987 213.600 L 296.000 213.600 296.000 237.994 " stroke="none" fill="#ebeb6b" fill-rule="evenodd"></path></g></svg>